:FULLY-SPECIFIED
:FORCE-ALL-JOINTS-BE-3DOF
:DEGREES
68
root 5.92158 16.7677 -28.0924 11.2296 2.85398 -3.91334
lfemur -36.1755 15.801 -17.9129
ltibia 53.2575 0 0
lfoot -21.1764 -10.7709 0
ltoes 31.2456 0 0
rfemur -17.2684 -0.117807 21.9596
rtibia 30.2323 0 0
rfoot -26.3462 -18.3375 0
rtoes -10.1426 0 0
lowerback -3.67654 2.53689 3.29754
upperback -1.45145 3.27129 -0.163715
thorax 0.760186 1.63061 -1.86774
lowerneck -10.0368 -2.42885 2.2408
upperneck -5.64123 -3.39547 2.00348
head -0.10302 -1.7157 0.153194
lclavicle -3.1292e-14 4.96967e-16 0
lhumerus -40.4465 -11.6066 93.7734
lradius 43.972 0 0
lwrist 7.87948 0 0
lhand -13.2975 1.80461 0
lfingers 7.12502 0 0
lthumb 12.8062 31.3888 0
rclavicle -3.1292e-14 4.96967e-16 0
rhumerus -39.0099 2.38851 -91.9018
rradius 42.185 0 0
rwrist 8.41885 0 0
rhand -25.1404 -21.7024 0
rfingers 7.12502 0 0
rthumb 1.37597 -51.6777 0
69
root 5.93383 16.7689 -28.0705 11.5287 2.92077 -4.01787
lfemur -36.9724 15.9353 -17.7814
ltibia 53.2408 0 0
lfoot -21.0945 -9.65785 0
ltoes 30.136 0 0
rfemur -17.4413 0.102285 22.0364
rtibia 30.1222 0 0
rfoot -26.0881 -18.6105 0
rtoes -10.6066 0 0
lowerback -3.88613 2.59464 3.23578
upperback -1.55447 3.34453 -0.130654
thorax 0.76958 1.66648 -1.78835
lowerneck -10.0531 -2.46641 2.33552
upperneck -5.68222 -3.45489 1.94444
head -0.116111 -1.74787 0.118698
lclavicle -3.43566e-14 -2.38541e-15 0
lhumerus -40.5502 -11.2272 93.5939
lradius 43.9973 0 0
lwrist 7.99674 0 0
lhand -13.7909 1.71837 0
lfingers 7.12502 0 0
lthumb 12.3305 31.33 0
rclavicle -3.43566e-14 -2.38541e-15 0
rhumerus -38.7942 2.60753 -91.8217
rradius 42.1307 0 0
rwrist 8.65733 0 0
rhand -25.1694 -21.6429 0
rfingers 7.12502 0 0
rthumb 1.34797 -51.6184 0
70
root 5.94607 16.7702 -28.0486 11.8279 2.98757 -4.1224
lfemur -37.7694 16.0697 -17.65
ltibia 53.224 0 0
lfoot -21.0125 -8.54483 0
ltoes 29.0265 0 0
rfemur -17.6142 0.322376 22.1133
rtibia 30.0121 0 0
rfoot -25.8299 -18.8835 0
rtoes -11.0707 0 0
lowerback -4.09571 2.6524 3.17403
upperback -1.65749 3.41778 -0.0975937
thorax 0.778975 1.70235 -1.70896
lowerneck -10.0695 -2.50396 2.43025
upperneck -5.72321 -3.51431 1.88539
head -0.129201 -1.78004 0.0842008
lclavicle -3.74212e-14 -5.26778e-15 0
lhumerus -40.6539 -10.8477 93.4145
lradius 44.0226 0 0
lwrist 8.11399 0 0
lhand -14.2842 1.63214 0
lfingers 7.12502 0 0
lthumb 11.8548 31.2712 0
rclavicle -3.74212e-14 -5.26778e-15 0
rhumerus -38.5786 2.82656 -91.7415
rradius 42.0764 0 0
rwrist 8.89581 0 0
rhand -25.1983 -21.5834 0
rfingers 7.12502 0 0
rthumb 1.31997 -51.5591 0
71
root 5.95832 16.7715 -28.0267 12.1271 3.05436 -4.22694
lfemur -38.5664 16.2041 -17.5185
ltibia 53.2072 0 0
lfoot -20.9306 -7.43181 0
ltoes 27.917 0 0
rfemur -17.7871 0.542468 22.1901
rtibia 29.9019 0 0
rfoot -25.5718 -19.1566 0
rtoes -11.5347 0 0
lowerback -4.30529 2.71015 3.11227
upperback -1.76052 3.49103 -0.0645329
thorax 0.788369 1.73822 -1.62956
lowerneck -10.0859 -2.54151 2.52498
upperneck -5.76419 -3.57374 1.82635
head -0.142292 -1.81222 0.0497041
lclavicle -4.04858e-14 -8.15015e-15 0
lhumerus -40.7576 -10.4683 93.2351
lradius 44.048 0 0
lwrist 8.23125 0 0
lhand -14.7775 1.54591 0
lfingers 7.12502 0 0
lthumb 11.3791 31.2124 0
rclavicle -4.04858e-14 -8.15015e-15 0
rhumerus -38.363 3.04559 -91.6614
rradius 42.022 0 0
rwrist 9.1343 0 0
rhand -25.2273 -21.524 0
rfingers 7.12502 0 0
rthumb 1.29198 -51.4998 0
72
root 5.97057 16.7727 -28.0048 12.4262 3.12115 -4.33148
lfemur -39.3633 16.3384 -17.387
ltibia 53.1905 0 0
lfoot -20.8487 -6.31878 0
ltoes 26.8074 0 0
rfemur -17.96 0.76256 22.267
rtibia 29.7918 0 0
rfoot -25.3137 -19.4296 0
rtoes -11.9988 0 0
lowerback -4.51488 2.76791 3.05051
upperback -1.86354 3.56427 -0.0314721
thorax 0.797763 1.77409 -1.55017
lowerneck -10.1022 -2.57907 2.6197
upperneck -5.80518 -3.63316 1.7673
head -0.155382 -1.84439 0.0152074
lclavicle -4.35504e-14 -1.10325e-14 0
lhumerus -40.8613 -10.0888 93.0556
lradius 44.0733 0 0
lwrist 8.34851 0 0
lhand -15.2709 1.45967 0
lfingers 7.12502 0 0
lthumb 10.9034 31.1536 0
rclavicle -4.35504e-14 -1.10325e-14 0
rhumerus -38.1473 3.26461 -91.5812
rradius 41.9677 0 0
rwrist 9.37278 0 0
rhand -25.2563 -21.4645 0
rfingers 7.12502 0 0
rthumb 1.26398 -51.4405 0
73
root 5.98282 16.774 -27.9829 12.7254 3.18795 -4.43601
lfemur -40.1603 16.4728 -17.2555
ltibia 53.1737 0 0
lfoot -20.7668 -5.20576 0
ltoes 25.6979 0 0
rfemur -18.1329 0.982652 22.3438
rtibia 29.6817 0 0
rfoot -25.0556 -19.7026 0
rtoes -12.4628 0 0
lowerback -4.72446 2.82566 2.98875
upperback -1.96656 3.63752 0.00158862
thorax 0.807157 1.80996 -1.47078
lowerneck -10.1186 -2.61662 2.71443
upperneck -5.84617 -3.69258 1.70826
head -0.168473 -1.87656 -0.0192893
lclavicle -4.6615e-14 -1.39149e-14 0
lhumerus -40.965 -9.70938 92.8762
lradius 44.0986 0 0
lwrist 8.46577 0 0
lhand -15.7642 1.37344 0
lfingers 7.12502 0 0
lthumb 10.4277 31.0948 0
rclavicle -4.6615e-14 -1.39149e-14 0
rhumerus -37.9317 3.48364 -91.5011
rradius 41.9134 0 0
rwrist 9.61126 0 0
rhand -25.2853 -21.405 0
rfingers 7.12502 0 0
rthumb 1.23599 -51.3812 0
74
root 6.00694 16.7701 -27.946 12.7105 3.25779 -4.55659
lfemur -40.2473 16.1297 -16.8179
ltibia 52.5741 0 0
lfoot -20.582 -3.90094 0
ltoes 24.8572 0 0
rfemur -17.8597 0.916037 22.4079
rtibia 29.4748 0 0
rfoot -25.2794 -19.7449 0
rtoes -12.1916 0 0
lowerback -4.71794 2.91051 2.96634
upperback -2.00117 3.75231 0.0285885
thorax 0.769721 1.86682 -1.42553
lowerneck -10.1781 -2.69407 2.78681
upperneck -5.79662 -3.80571 1.68833
head -0.146208 -1.93318 -0.0417887
lclavicle -4.62257e-14 -1.6466e-14 0
lhumerus -41.1224 -9.57468 92.7294
lradius 44.132 0 0
lwrist 8.53242 0 0
lhand -15.5153 1.39779 0
lfingers 7.12502 0 0
lthumb 10.6677 31.1062 0
rclavicle -4.62257e-14 -1.6466e-14 0
rhumerus -37.8112 3.49819 -91.3586
rradius 42.0503 0 0
rwrist 9.39202 0 0
rhand -25.2161 -21.481 0
rfingers 7.12502 0 0
rthumb 1.30286 -51.4567 0
75
root 6.03106 16.7661 -27.9091 12.6955 3.32763 -4.67717
lfemur -40.3344 15.7866 -16.3803
ltibia 51.9745 0 0
lfoot -20.3972 -2.59612 0
ltoes 24.0165 0 0
rfemur -17.5866 0.849423 22.4719
rtibia 29.2678 0 0
rfoot -25.5032 -19.7871 0
rtoes -11.9203 0 0
lowerback -4.71142 2.99536 2.94393
upperback -2.03578 3.86709 0.0555884
thorax 0.732286 1.92367 -1.38027
lowerneck -10.2375 -2.77152 2.8592
upperneck -5.74707 -3.91884 1.6684
head -0.123942 -1.9898 -0.0642882
lclavicle -4.58364e-14 -1.9017e-14 0
lhumerus -41.2798 -9.43997 92.5827
lradius 44.1654 0 0
lwrist 8.59906 0 0
lhand -15.2665 1.42214 0
lfingers 7.12502 0 0
lthumb 10.9077 31.1176 0
rclavicle -4.58364e-14 -1.9017e-14 0
rhumerus -37.6907 3.51274 -91.216
rradius 42.1872 0 0
rwrist 9.17279 0 0
rhand -25.1468 -21.5569 0
rfingers 7.12502 0 0
rthumb 1.36973 -51.5322 0
76
root 6.05518 16.7622 -27.8722 12.6806 3.39748 -4.79775
lfemur -40.4214 15.4435 -15.9427
ltibia 51.3749 0 0
lfoot -20.2124 -1.2913 0
ltoes 23.1758 0 0
rfemur -17.3134 0.782808 22.536
rtibia 29.0609 0 0
rfoot -25.727 -19.8294 0
rtoes -11.649 0 0
lowerback -4.7049 3.08021 2.92152
upperback -2.07039 3.98188 0.0825883
thorax 0.69485 1.98053 -1.33502
lowerneck -10.297 -2.84897 2.93158
upperneck -5.69752 -4.03196 1.64847
head -0.101677 -2.04642 -0.0867877
lclavicle -4.54472e-14 -2.15681e-14 0
lhumerus -41.4372 -9.30526 92.4359
lradius 44.1988 0 0
lwrist 8.6657 0 0
lhand -15.0176 1.4465 0
lfingers 7.12502 0 0
lthumb 11.1477 31.129 0
rclavicle -4.54472e-14 -2.15681e-14 0
rhumerus -37.5701 3.52729 -91.0734
rradius 42.3242 0 0
rwrist 8.95355 0 0
rhand -25.0776 -21.6329 0
rfingers 7.12502 0 0
rthumb 1.4366 -51.6077 0
77
root 6.07929 16.7582 -27.8352 12.6657 3.46732 -4.91833
lfemur -40.5084 15.1004 -15.5051
ltibia 50.7753 0 0
lfoot -20.0275 0.0135133 0
ltoes 22.335 0 0
rfemur -17.0402 0.716193 22.6001
rtibia 28.854 0 0
rfoot -25.9508 -19.8717 0
rtoes -11.3778 0 0
lowerback -4.69837 3.16506 2.89912
upperback -2.10501 4.09667 0.109588
thorax 0.657414 2.03739 -1.28977
lowerneck -10.3564 -2.92642 3.00396
upperneck -5.64798 -4.14509 1.62855
head -0.0794111 -2.10303 -0.109287
lclavicle -4.50579e-14 -2.41192e-14 0
lhumerus -41.5946 -9.17056 92.2892
lradius 44.2321 0 0
lwrist 8.73235 0 0
lhand -14.7688 1.47085 0
lfingers 7.12502 0 0
lthumb 11.3877 31.1404 0
rclavicle -4.50579e-14 -2.41192e-14 0
rhumerus -37.4496 3.54183 -90.9309
rradius 42.4611 0 0
rwrist 8.73431 0 0
rhand -25.0084 -21.7089 0
rfingers 7.12502 0 0
rthumb 1.50346 -51.6833 0
